<?xml version="1.0" encoding="UTF-8" standalone="no"?>
<!-- Created with Inkscape (http://www.inkscape.org/) -->

<svg
   xmlns:dc="http://purl.org/dc/elements/1.1/"
   xmlns:cc="http://creativecommons.org/ns#"
   xmlns:rdf="http://www.w3.org/1999/02/22-rdf-syntax-ns#"
   xmlns:svg="http://www.w3.org/2000/svg"
   xmlns="http://www.w3.org/2000/svg"
   xmlns:sodipodi="http://sodipodi.sourceforge.net/DTD/sodipodi-0.dtd"
   xmlns:inkscape="http://www.inkscape.org/namespaces/inkscape"
   width="1000.0657"
   height="400"
   id="svg3206"
   version="1.1"
   inkscape:version="0.48.4 r9939"
   sodipodi:docname="Neues Dokument 3">
  <defs
     id="defs3208">
    <clipPath
       clipPathUnits="userSpaceOnUse"
       id="clipPath48">
      <path
         inkscape:connector-curvature="0"
         d="m 506.069,22.053 103.379,0 0,19.749 -103.379,0 0,-19.749 z"
         id="path50" />
    </clipPath>
  </defs>
  <sodipodi:namedview
     id="base"
     pagecolor="#ffffff"
     bordercolor="#666666"
     borderopacity="1.0"
     inkscape:pageopacity="0.0"
     inkscape:pageshadow="2"
     inkscape:zoom="1.5498982"
     inkscape:cx="500.03283"
     inkscape:cy="200"
     inkscape:document-units="px"
     inkscape:current-layer="layer1"
     showgrid="false"
     fit-margin-top="0"
     fit-margin-left="0"
     fit-margin-right="0"
     fit-margin-bottom="0"
     inkscape:window-width="1680"
     inkscape:window-height="990"
     inkscape:window-x="-4"
     inkscape:window-y="-4"
     inkscape:window-maximized="1" />
  <metadata
     id="metadata3211">
    <rdf:RDF>
      <cc:Work
         rdf:about="">
        <dc:format>image/svg+xml</dc:format>
        <dc:type
           rdf:resource="http://purl.org/dc/dcmitype/StillImage" />
        <dc:title></dc:title>
      </cc:Work>
    </rdf:RDF>
  </metadata>
  <g
     inkscape:label="Ebene 1"
     inkscape:groupmode="layer"
     id="layer1"
     transform="translate(-193.99754,-271.33218)">
    <path
       d="m 193.99754,671.33218 1000.06566,0 0,-400 -1000.06566,0 0,400 z"
       style="fill:#ffed00;fill-opacity:1;fill-rule:nonzero;stroke:none"
       id="path30"
       inkscape:connector-curvature="0" />
    <g
       id="g40"
       transform="matrix(8.018989,0,0,-8.018989,279.53201,448.15809)">
      <path
         inkscape:connector-curvature="0"
         d="M 0,0 0,6.984 8.291,3.512 0,0 z"
         style="fill:#2d2c2e;fill-opacity:1;fill-rule:nonzero;stroke:none"
         id="path42" />
    </g>
    <g
       transform="matrix(8.018989,0,0,-8.018989,-3778.6281,727.35606)"
       id="g44">
      <g
         id="g46"
         clip-path="url(#clipPath48)">
        <g
           id="g52"
           transform="translate(524.2878,22.2426)">
          <path
             inkscape:connector-curvature="0"
             d="m 0,0 0,6.035 c 0,0.968 -0.266,1.556 -1.158,1.556 -1.233,0 -2.201,-1.385 -2.201,-3.036 l 0,-4.555 -2.43,0 0,9.432 2.297,0 c 0,-0.436 -0.038,-1.195 -0.133,-1.689 l 0.019,0 c 0.569,1.101 1.67,1.88 3.208,1.88 2.125,0 2.808,-1.348 2.808,-3 L 2.41,0 0,0"
             style="fill:#2d2c2e;fill-opacity:1;fill-rule:nonzero;stroke:none"
             id="path54" />
        </g>
        <g
           id="g56"
           transform="translate(540.3323,22.2426)">
          <path
             inkscape:connector-curvature="0"
             d="m 0,0 -2.638,0 -1.367,4.195 c -0.208,0.645 -0.36,1.309 -0.531,2.106 l -0.019,0 C -4.745,5.428 -4.953,4.707 -5.2,3.928 L -6.396,0 l -2.505,0 -2.885,9.432 2.657,0 1.006,-3.568 c 0.247,-0.93 0.513,-1.878 0.74,-2.846 l 0.019,0 c 0.19,1.043 0.418,1.898 0.683,2.733 l 1.139,3.681 2.335,0 1.157,-3.568 c 0.342,-1.081 0.57,-1.916 0.759,-2.846 l 0.038,0 c 0.19,0.968 0.38,1.803 0.665,2.733 l 1.062,3.681 2.487,0 L 0,0"
             style="fill:#2d2c2e;fill-opacity:1;fill-rule:nonzero;stroke:none"
             id="path58" />
        </g>
        <g
           id="g60"
           transform="translate(549.8385,29.8533)">
          <path
             inkscape:connector-curvature="0"
             d="m 0,0 c -1.272,0 -2.031,-1.462 -2.031,-3.037 l 0,-2.657 c 0.342,-0.114 0.74,-0.17 1.272,-0.17 1.366,0 2.372,0.872 2.372,3.207 C 1.613,-0.892 1.101,0 0,0 m -0.949,-7.8 c -1.366,0 -2.429,0.151 -3.511,0.455 l 0,13.588 2.429,0 0,-4.061 c 0,-0.569 -0.057,-1.347 -0.151,-1.841 l 0.019,0 c 0.474,1.025 1.537,1.671 2.846,1.671 2.259,0 3.473,-1.633 3.473,-4.422 0,-3.189 -1.859,-5.39 -5.105,-5.39"
             style="fill:#2d2c2e;fill-opacity:1;fill-rule:nonzero;stroke:none"
             id="path62" />
        </g>
        <g
           id="g64"
           transform="translate(565.1467,22.2426)">
          <path
             inkscape:connector-curvature="0"
             d="m 0,0 -0.952,0 -3.451,9.317 1.021,0 2.265,-6.377 c 0.206,-0.552 0.468,-1.312 0.662,-1.974 l 0.014,0 C -0.248,1.615 0,2.333 0.263,3.023 l 2.36,6.294 0.925,0 L 0,0"
             style="fill:#2d2c2e;fill-opacity:1;fill-rule:nonzero;stroke:none"
             id="path66" />
        </g>
        <g
           id="g68"
           transform="translate(570.9579,22.2426)">
          <path
             inkscape:connector-curvature="0"
             d="m 0,0 0,9.317 4.596,0 0,-0.718 -3.713,0 0,-3.436 3.533,0 0,-0.705 -3.533,0 0,-3.727 3.713,0 L 4.596,0 0,0 z"
             style="fill:#2d2c2e;fill-opacity:1;fill-rule:nonzero;stroke:none"
             id="path70" />
        </g>
        <g
           id="g72"
           transform="translate(580.4962,30.8971)">
          <path
             inkscape:connector-curvature="0"
             d="m 0,0 c -0.359,0 -0.649,-0.014 -0.953,-0.042 l 0,-3.506 c 0.166,-0.013 0.456,-0.027 0.897,-0.027 1.519,0 2.388,0.759 2.388,1.835 C 2.332,-0.442 1.49,0 0,0 m 2.664,-8.655 -3.437,4.403 -0.18,0 0,-4.403 -0.884,0 0,9.317 c 0.567,0.028 1.105,0.041 2.085,0.041 1.684,0 3.009,-0.579 3.009,-2.291 0,-1.711 -1.449,-2.608 -3.051,-2.636 0.277,-0.303 0.608,-0.662 0.842,-0.966 l 2.789,-3.465 -1.173,0"
             style="fill:#2d2c2e;fill-opacity:1;fill-rule:nonzero;stroke:none"
             id="path74" />
        </g>
        <g
           id="g76"
           transform="translate(587.0505,22.2426)">
          <path
             inkscape:connector-curvature="0"
             d="m 0,0 0,9.317 0.884,0 0,-8.586 3.561,0 L 4.445,0 0,0 z"
             style="fill:#2d2c2e;fill-opacity:1;fill-rule:nonzero;stroke:none"
             id="path78" />
        </g>
        <g
           id="g80"
           transform="translate(596.8651,29.3369)">
          <path
             inkscape:connector-curvature="0"
             d="m 0,0 c -0.167,0.456 -0.305,0.856 -0.414,1.243 l -0.015,0 C -0.552,0.856 -0.69,0.442 -0.842,0.014 l -1.478,-4.016 3.783,0 L 0,0 z m 2.566,-7.094 -0.841,2.374 -4.292,0 -0.87,-2.374 -0.925,0 3.505,9.316 0.954,0 3.491,-9.316 -1.022,0"
             style="fill:#2d2c2e;fill-opacity:1;fill-rule:nonzero;stroke:none"
             id="path82" />
        </g>
        <g
           id="g84"
           transform="translate(606.4545,22.1322)">
          <path
             inkscape:connector-curvature="0"
             d="m 0,0 c -2.733,0 -4.583,1.684 -4.583,4.597 0,2.815 1.85,4.94 4.886,4.94 0.869,0 1.698,-0.138 2.54,-0.4 L 2.635,8.337 C 1.85,8.655 1.021,8.806 0.192,8.806 c -1.986,0 -3.837,-1.297 -3.837,-4.058 0,-2.581 1.547,-4.002 3.783,-4.002 0.745,0 1.366,0.11 1.973,0.303 l 0,3.713 0.883,0 0,-4.251 C 2.057,0.166 0.939,0 0,0"
             style="fill:#2d2c2e;fill-opacity:1;fill-rule:nonzero;stroke:none"
             id="path86" />
        </g>
      </g>
    </g>
  </g>
</svg>
